# xmcd
# 
# Track frame offsets:
#     187
#     17172
#     34335
#     49380
#     61945
#     74425
#     86657
#     97795
#     109260
#     129400
#     142507
#     158607
# 
# Disc length: 2350
# 
# Revision: 2
# Processed by: cddbd v1.5.2PL0 Copyright (c) Steve Scherf et al.
# Submitted via: fre:ac v1.0.27
# 
DISCID=98092c0c
DTITLE=The Oakridge Boys - Christmas
DYEAR=1982
DGENRE=Christmas
TTITLE0=Jesus Is Born Today (It is his birthday)
TTITLE1=Christmas is painting the town
TTITLE2=Christmas Carol
TTITLE3=Silver Bells
TTITLE4=Santa's Song
TTITLE5=White Christmas
TTITLE6=Happy Christmas Eve
TTITLE7=Thank God For Kids
TTITLE8=Silent Night
TTITLE9=Little One
TTITLE10=Mary Christmas
TTITLE11=Oh Holy Night
EXTD=
EXTT0=
EXTT1=
EXTT2=
EXTT3=
EXTT4=
EXTT5=
EXTT6=
EXTT7=
EXTT8=
EXTT9=
EXTT10=
EXTT11=
PLAYORDER=
